# Instant Launcher mark: a cube of three instance slabs, a lightning-bolt i and a Minecraft-font l.
# Units: metres, Z up (import with Y forward / Z up). Slab 30 cm, gap 30 cm.
mtllib instant-launcher.mtl
v 0.0000 0.0000 0.3000
v 1.5000 0.0000 0.3000
v 1.5000 1.5000 0.3000
v 0.0000 1.5000 0.3000
v 0.0000 1.5000 0.0000
v 1.5000 1.5000 0.0000
v 1.5000 0.0000 0.0000
v 0.0000 0.0000 0.0000
v 0.0000 0.0000 0.9000
v 1.5000 0.0000 0.9000
v 1.5000 1.5000 0.9000
v 0.0000 1.5000 0.9000
v 0.0000 1.5000 0.6000
v 1.5000 1.5000 0.6000
v 1.5000 0.0000 0.6000
v 0.0000 0.0000 0.6000
v 0.0000 0.0000 1.5000
v 1.5000 0.0000 1.5000
v 1.5000 1.5000 1.5000
v 0.0000 1.5000 1.5000
v 0.0000 1.5000 1.2000
v 1.5000 1.5000 1.2000
v 1.5000 0.0000 1.2000
v 0.0000 0.0000 1.2000
v 0.9814 -0.3000 1.5000
v 0.3643 -0.3000 0.6000
v 0.6806 -0.3000 0.6000
v 0.5417 -0.3000 0.0000
v 1.1357 -0.3000 0.9000
v 0.8194 -0.3000 0.9000
v 0.8194 0.0000 0.9000
v 1.1357 0.0000 0.9000
v 0.5417 0.0000 0.0000
v 0.6806 0.0000 0.6000
v 0.3643 0.0000 0.6000
v 0.9814 0.0000 1.5000
v 1.8000 0.3000 0.0000
v 1.8000 1.2000 0.0000
v 1.8000 1.2000 0.3000
v 1.8000 0.9000 0.3000
v 1.8000 0.9000 1.5000
v 1.8000 0.3000 1.5000
v 1.8000 0.3000 1.2000
v 1.8000 0.6000 1.2000
v 1.8000 0.6000 0.3000
v 1.8000 0.3000 0.3000
v 1.5000 0.3000 0.3000
v 1.5000 0.6000 0.3000
v 1.5000 0.6000 1.2000
v 1.5000 0.3000 1.2000
v 1.5000 0.3000 1.5000
v 1.5000 0.9000 1.5000
v 1.5000 0.9000 0.3000
v 1.5000 1.2000 0.3000
v 1.5000 1.2000 0.0000
v 1.5000 0.3000 0.0000

o slab_bottom
usemtl slab_bottom
f 1 2 3 4
f 5 6 7 8
f 8 7 2 1
f 7 6 3 2
f 6 5 4 3
f 5 8 1 4

o slab_middle
usemtl slab_middle
f 9 10 11 12
f 13 14 15 16
f 16 15 10 9
f 15 14 11 10
f 14 13 12 11
f 13 16 9 12

o slab_top
usemtl slab_top
f 17 18 19 20
f 21 22 23 24
f 24 23 18 17
f 23 22 19 18
f 22 21 20 19
f 21 24 17 20

o bolt
usemtl bolt
f 25 26 27 28 29 30
f 31 32 33 34 35 36
f 36 35 26 25
f 35 34 27 26
f 34 33 28 27
f 33 32 29 28
f 32 31 30 29
f 31 36 25 30

o letter_l
usemtl letter_l
f 37 38 39 40 41 42 43 44 45 46
f 47 48 49 50 51 52 53 54 55 56
f 56 55 38 37
f 55 54 39 38
f 54 53 40 39
f 53 52 41 40
f 52 51 42 41
f 51 50 43 42
f 50 49 44 43
f 49 48 45 44
f 48 47 46 45
f 47 56 37 46
